<svg width="55" height="65" fill="none" xmlns="http://www.w3.org/2000/svg"><path d="M45.8563 41.6542c-2.8188 0-5.5459-.5417-8.0896-1.5167-.3985-.1596-.827-.1833-1.2364-.0684-.4094.115-.7831.364-1.0782.7184l-3.5979 5.3354c-6.4855-3.6562-12.5584-10.5625-15.7896-18.4979l4.4687-4.4958c.6188-.7584.8021-1.8146.55-2.7625-.8479-3.0063-1.2833-6.2292-1.2833-9.5605 0-1.4625-1.0312-2.6812-2.2687-2.6812H9.6021c-1.2375 0-2.7271.65-2.7271 2.6812 0 25.1605 17.7146 46.0688 38.9813 46.0688 1.627 0 2.2687-1.7063 2.2687-3.1958v-9.3438c0-1.4625-1.0312-2.6812-2.2687-2.6812z" fill="#000"/></svg>