<svg width="117" height="105" fill="none" xmlns="http://www.w3.org/2000/svg"><g clip-path="url(#clip0)"><path d="M109.597 104.886c3.536.011 6.415-2.565 6.431-5.7524l.456-93.0262c.016-3.1877-2.838-5.7796-6.373-5.7898L6.9154.0186C3.3787.0083.5005 2.5836.4849 5.7713L.0284 98.7974c-.0156 3.1876 2.8372 5.7796 6.3739 5.7896l103.1947.299z" fill="#395185"/><path d="M80.0378 104.8l.1987-40.494 15.0786.0437L97.65 48.575l-17.3361-.0502.0495-10.0762c.0224-4.5691 1.4455-7.6788 8.7141-7.6577l9.2705.0231.0692-14.1146c-1.6031-.1971-7.1037-.6427-13.5054-.6613-13.3663-.0387-22.5527 7.2893-22.619 20.7957l-.0571 11.6386-15.1171-.0438-.0774 15.7812 15.1171.0438-.1987 40.4944 18.0782.052z" fill="#fff"/></g><defs><clipPath id="clip0"><path fill="#fff" transform="matrix(1 .0029 -.0049 .99999 .5132 0)" d="M0 0h116v104.57H0z"/></clipPath></defs></svg>