<svg width="117" height="111" fill="none" xmlns="http://www.w3.org/2000/svg"><g clip-path="url(#clip0)"><path d="M58.5383.168C26.5097.0754.4145 25.183.2621 56.2489.14 81.1009 16.6554 102.234 39.6643 109.738c2.8961.529 3.969-1.209 3.9763-2.695.0066-1.341-.026-5.772-.0275-10.4716-16.1524 3.3554-19.5079-6.6935-19.5079-6.6935-2.6066-6.5091-6.3998-8.2494-6.3998-8.2494-5.245-3.5061.4137-3.4176.4137-3.4176 5.822.4132 8.8623 5.8219 8.8623 5.8219 5.1311 8.614 13.5388 6.1524 16.8554 4.7246.5385-3.6336 2.0537-6.1112 3.7195-7.5108-12.8758-1.4594-26.3946-6.3219-26.2889-27.8747.0302-6.1411 2.3204-11.1526 6.0499-15.0809-.5953-1.4185-2.5523-7.1449.6349-14.884 0 0 4.878-1.4976 15.9262 5.8121 4.6325-1.2328 9.5973-1.8433 14.5264-1.8506 4.929.0358 9.8917.6747 14.5206 1.9348 11.1059-7.2451 15.9623-5.7193 15.9623-5.7193 3.1189 7.7565 1.1048 13.4722.4957 14.8868 3.6994 3.9499 5.925 8.9744 5.8949 15.1156-.106 21.6042-13.6977 26.3218-26.6199 27.6769 2.0717 1.7515 3.9087 5.1801 3.8829 10.4279-.0369 7.5259-.1337 13.5828-.1428 15.4358-.0073 1.497 1.0281 3.254 3.9706 2.71 23.0693-7.379 39.7709-28.408 39.8929-53.2517C116.414 25.5191 90.5696.2609 58.5383.1681zM21.8681 80.1905c-.1292.2791-.5831.3618-.995.1685-.4201-.1844-.6543-.5661-.517-.8461.1265-.2875.5814-.3666 1-.1724.4205.1849.6588.5701.512.85zm2.8407 2.4771c-.2776.2479-.818.1308-1.1832-.2632-.3773-.393-.4459-.9179-.1641-1.1694.2867-.2479.8103-.1299 1.1886.2632.3778.3979.4486.9188.1587 1.1694zm1.942 3.1643c-.3568.2385-.9366.0123-1.2935-.4889-.3528-.5011-.3499-1.1009.0143-1.3402.3614-.2394.9326-.0215 1.294.4761.3519.5095.3489 1.1093-.0152 1.3535l.0004-.0005zm3.2917 3.668c-.3193.3392-.9963.2458-1.4897-.2197-.5048-.4549-.6426-1.0987-.3219-1.4379.3233-.3401 1.0039-.2423 1.501.2197.5008.4541.6516 1.1027.3106 1.4379zm4.2723 1.2472c-.1426.4403-.7961.6388-1.4517.4497-.6552-.1948-1.0818-.7119-.9473-1.1567.1386-.4434.7948-.6498 1.4554-.4475.6543.1935 1.0822.7071.9436 1.1549v-.0004zm4.8658.5383c.014.4637-.5447.8466-1.2344.8534-.6934.0129-1.253-.364-1.2584-.821.0023-.468.5488-.8474 1.2426-.8569.6897-.0111 1.2525.3631 1.2502.8245zm4.7836-.1641c.0802.4529-.401.9164-1.0867 1.0384-.6735.1171-1.2956-.1642-1.3791-.6131-.0811-.4643.4092-.9278 1.0818-1.0458.6866-.1136 1.2988.1602 1.384.6205z" fill="#161614"/></g><defs><clipPath id="clip0"><path fill="#fff" transform="matrix(1 .0029 -.0049 .99999 .5386 0)" d="M0 0h116v109.861H0z"/></clipPath></defs></svg>