<svg width="124" height="125" fill="none" xmlns="http://www.w3.org/2000/svg"><g clip-path="url(#clip0)"><path d="M124 11.125v103c0 3-1.075 5.583-3.224 7.75s-4.712 3.25-7.688 3.25H10.912c-2.976 0-5.5387-1.083-7.688-3.25-2.1493-2.167-3.224-4.75-3.224-7.75v-103c0-3 1.0747-5.5833 3.224-7.75C5.3733 1.2083 7.936.125 10.912.125h102.176c2.976 0 5.539 1.0833 7.688 3.25S124 8.125 124 11.125zm-41.168 89h15.996V69.25c0-7.4167-1.6947-13.0417-5.084-16.875-3.3893-3.8333-7.812-5.75-13.268-5.75-3.8853 0-7.1713.875-9.858 2.625-2.6867 1.75-4.6913 3.7083-6.014 5.875h-.248l-.744-7.375H49.848c.248 9.5.372 15.0833.372 16.75v35.625h15.872V70c0-1.75.1653-3.125.496-4.125 1.6533-4.0833 4.3813-6.125 8.184-6.125 5.3733 0 8.06 3.7917 8.06 11.375v29zM38.874 27.4375c-1.5293-1.5417-3.534-2.3125-6.014-2.3125-2.48 0-4.5053.7708-6.076 2.3125-1.5707 1.5417-2.356 3.4792-2.356 5.8125s.7647 4.2708 2.294 5.8125c1.5293 1.5417 3.4927 2.3125 5.89 2.3125 2.6453 0 4.7533-.75 6.324-2.25 1.488-1.5 2.232-3.3333 2.232-5.5 0-2.5833-.7647-4.6458-2.294-6.1875zM24.8 100.125h15.872V47.75H24.8v52.375z" fill="#0072B1"/></g><defs><clipPath id="clip0"><path fill="#fff" d="M0 0h124v125H0z"/></clipPath></defs></svg>