<svg width="82" height="82" fill="none" xmlns="http://www.w3.org/2000/svg"><path d="M41.0002 69.7l-1.312-1.476c-.82-.82-20.008-23.452-20.008-37.064 0-11.808 9.512-21.32 21.32-21.32s21.32 9.512 21.32 21.32c0 13.612-19.188 36.244-20.008 37.228l-1.312 1.312zm0-56.58c-10.004 0-18.04 8.036-18.04 18.04 0 10.496 13.776 28.208 18.04 33.456 4.264-5.248 18.04-22.96 18.04-33.456 0-10.004-8.036-18.04-18.04-18.04z" fill="#000"/><path d="M41.0001 39.36c-4.592 0-8.2001-3.608-8.2001-8.2 0-4.592 3.6081-8.2 8.2001-8.2 4.592 0 8.2 3.608 8.2 8.2 0 4.592-3.608 8.2-8.2 8.2zm0-13.12c-2.788 0-4.9201 2.132-4.9201 4.92s2.1321 4.92 4.9201 4.92 4.92-2.132 4.92-4.92-2.132-4.92-4.92-4.92z" fill="#000"/></svg>