<svg width="61" height="50" fill="none" xmlns="http://www.w3.org/2000/svg"><path fill-rule="evenodd" clip-rule="evenodd" d="M53.7034 1.547c-1.992-1.032-4.356-1.548-7.092-1.548h-7.812v25.092h7.812c2.736 0 5.1-.492 7.092-1.476 2.016-1.008 3.552-2.448 4.608-4.32 1.08-1.896 1.62-4.128 1.62-6.696 0-2.568-.54-4.8-1.62-6.696-1.056-1.896-2.592-3.348-4.608-4.356zm.324 18.288c-1.704 1.704-4.176 2.556-7.416 2.556h-4.536V2.663h4.536c3.216 0 5.676.876 7.38 2.628 1.728 1.752 2.592 4.188 2.592 7.308 0 3.096-.852 5.508-2.556 7.236zm-33.3546 5.3828h-3.276l-13.176-19.98v19.98H.9448V.0898h3.276l13.176 19.944V.0898h3.276v25.128zm9.8329 24.023c-1.656 0-3.144-.288-4.464-.864-1.296-.6-2.316-1.416-3.06-2.448-.744-1.056-1.128-2.268-1.152-3.636h3.492c.12 1.176.6 2.172 1.44 2.988.864.792 2.112 1.188 3.744 1.188 1.56 0 2.784-.384 3.672-1.152.912-.792 1.368-1.8 1.368-3.024 0-.96-.264-1.74-.792-2.34-.528-.6-1.188-1.056-1.98-1.368-.792-.312-1.86-.648-3.204-1.008-1.656-.432-2.988-.864-3.996-1.296-.984-.432-1.836-1.104-2.556-2.016-.696-.936-1.044-2.184-1.044-3.744 0-1.368.348-2.58 1.044-3.636.696-1.056 1.668-1.872 2.916-2.448 1.272-.576 2.724-.864 4.356-.864 2.352 0 4.272.588 5.76 1.764 1.512 1.176 2.364 2.736 2.556 4.68h-3.6c-.12-.96-.624-1.8-1.512-2.52-.888-.744-2.064-1.116-3.528-1.116-1.368 0-2.484.36-3.348 1.08-.864.696-1.296 1.68-1.296 2.952 0 .912.252 1.656.756 2.232.528.576 1.164 1.02 1.908 1.332.768.288 1.836.624 3.204 1.008 1.656.456 2.988.912 3.996 1.368 1.008.432 1.872 1.116 2.592 2.052.72.912 1.08 2.16 1.08 3.744 0 1.224-.324 2.376-.972 3.456-.648 1.08-1.608 1.956-2.88 2.628-1.272.672-2.772 1.008-4.5 1.008z" fill="#E5E5E5"/></svg>