<svg width="67" height="75" fill="none" xmlns="http://www.w3.org/2000/svg"><path d="M60.1696 12.5a3.3225 3.3225 0 00-.763 0H7.2955a3.3564 3.3564 0 00-.9864.1666l26.893 29.9792L60.1696 12.5z" fill="#000"/><path d="M62.9243 15.396L35.8265 45.6043c-.6974.7761-1.6408 1.2117-2.6242 1.2117-.9833 0-1.9267-.4356-2.6242-1.2117L3.7223 15.6252a4.632 4.632 0 00-.1303 1.0416v41.6667c0 1.1051.3922 2.1649 1.0902 2.9463.6981.7814 1.6449 1.2204 2.632 1.2204h52.1112c.9872 0 1.9339-.439 2.632-1.2204.698-.7814 1.0902-1.8412 1.0902-2.9463V16.6668a4.6083 4.6083 0 00-.2233-1.2708zM9.864 58.3335H7.277v-2.9792l13.5303-15.0208 2.6242 2.9375L9.864 58.3335zm49.5241 0h-2.6055L43.2151 43.271l2.6242-2.9375 13.5302 15.0208.0186 2.9792z" fill="#000"/></svg>