<svg width="117" height="70" fill="none" xmlns="http://www.w3.org/2000/svg"><g clip-path="url(#clip0)"><path d="M116.303 8.791c-4.276 1.3764-8.867 2.3017-13.683 2.7101 4.925-2.1467 8.715-5.5574 10.512-9.629-4.681 2.0203-9.799 3.4386-15.133 4.1934C93.6745 2.6602 87.5004.5221 80.6551.5025 67.5118.465 56.8168 8.2516 56.7688 17.8928a13.1022 13.1022 0 00.5964 3.9807C37.59 21.0886 20.0888 14.0882 8.4032 3.492c-2.061 2.5727-3.2495 5.5687-3.2654 8.7678-.0302 6.0571 4.145 11.4126 10.5149 14.5618-3.7789-.0976-7.4712-.857-10.769-2.2147-.0017.0731-.002.1462-.0024.2197-.0421 8.4588 8.1261 15.5386 19.0049 17.1736-3.508.6891-7.1845.781-10.7487.2684 2.9937 6.9447 11.7578 12.0171 22.1708 12.1881-8.1682 4.6591-18.444 7.421-29.5935 7.3892a65.812 65.812 0 01-5.676-.2602c10.5073 4.9836 23.0023 7.9096 36.4419 7.948 43.7749.125 67.8443-26.4096 67.9593-49.4801a36.0659 36.0659 0 00-.058-2.2589c4.672-2.4575 8.708-5.5064 11.921-9.0036z" fill="#55ACEE"/></g><defs><clipPath id="clip0"><path fill="#fff" transform="matrix(1 .00286 -.00498 .99999 .3452 0)" d="M0 0h116v69.4743H0z"/></clipPath></defs></svg>